<svg xmlns="http://www.w3.org/2000/svg" version="1.1" xmlns:xlink="http://www.w3.org/1999/xlink" xmlns:svgjs="http://svgjs.dev/svgjs" width="100%" height="100%" viewBox="0 0 1000 600"><rect width="1000" height="600" x="0" y="0" fill="#ffffff"/><g><rect width="333.3333333333333" height="333.3333333333333" rx="13.333333333333334" ry="13.333333333333334" y="240.02561307571577" fill="#fad744" transform="matrix(0.5739120005335587,0,0,0.5739120005335588,0,66.59440016237932)" x="217.80335998535156"/><path d="M374.38249613685906 331.69228128164684L374.38249613685906 481.69228629099877L354.8341468966829 481.69228629099877L276.1930778159741 362.4324335219239L276.1930778159741 481.69228629099877L256.61488376779766 481.69228629099877L256.61488376779766 331.69228128164684L276.1930778159741 331.69228128164684L354.8341468966829 450.7432203947198L354.8341468966829 331.69228128164684L374.38249613685906 331.69228128164684ZM482.6893043698352 404.54345761030345Q490.83693695390866 405.826784354315 497.61170836996973 411.1988497943634Q504.3864797860308 416.57091523441187 508.35583925006654 424.5394789704837Q512.3251987141023 432.4781978985552 512.3251987141023 441.5211747226367L512.3251987141023 441.5211747226367Q512.3251987141023 452.8920465707392 506.53530596205013 462.0245578188215Q500.745413209998 471.15706906690383 489.67298944189815 476.4396000829514Q478.6005656737984 481.69228629099877 463.55878244166274 481.69228629099877L463.55878244166274 481.69228629099877L407.6893018651592 481.69228629099877L407.6893018651592 331.931039745649L461.4099562656434 331.931039745649Q476.66065315378086 331.931039745649 487.4047840338777 336.9748122976944Q498.1489149139746 342.0185848497399 503.520980354023 350.61388955381733Q508.8930457940713 359.20919425789486 508.8930457940713 369.95332513799167L508.8930457940713 369.95332513799167Q508.8930457940713 383.26410950611165 501.7004470660066 391.9787934421902Q494.5078483379417 400.6934773782687 482.6893043698352 404.54345761030345L482.6893043698352 404.54345761030345ZM427.23765110533543 348.0472360657942L427.23765110533543 396.60473868223187L460.1266295216319 396.60473868223187Q473.88508600975587 396.60473868223187 481.40597762582365 390.1582601541738Q488.9268692418914 383.7117816261157 488.9268692418914 372.3110649700129L488.9268692418914 372.3110649700129Q488.9268692418914 360.94019312191045 481.40597762582365 354.49371459385236Q473.88508600975587 348.0472360657942 459.6789574016278 348.0472360657942L459.6789574016278 348.0472360657942L427.23765110533543 348.0472360657942ZM461.8277835776472 465.5760899708535Q476.45173949777904 465.5760899708535 484.62921688985267 458.7117841307916Q492.7768494739262 451.8176334827295 492.7768494739262 439.58126220261926L492.7768494739262 439.58126220261926Q492.7768494739262 427.1061324585068 484.1815447698487 419.913533730442Q475.5862400657712 412.72093500237713 461.2010426096416 412.72093500237713L461.2010426096416 412.72093500237713L427.23765110533543 412.72093500237713L427.23765110533543 465.5760899708535L461.8277835776472 465.5760899708535Z " fill="#2b3252" transform="matrix(0.5739120005335587,0,0,0.5739120005335588,0,66.59440016237932)"/><path d="M744.2234231001261 340.0920603375614L744.2234231001261 479.8843829286753L726.0053627544874 479.8843829286753L652.7159138831016 368.74030790398547L652.7159138831016 479.8843829286753L634.4700397048744 479.8843829286753L634.4700397048744 340.0920603375614L652.7159138831016 340.0920603375614L726.0053627544874 451.0414385341299L726.0053627544874 340.0920603375614L744.2234231001261 340.0920603375614ZM854.3662001516203 370.1309995334235L872.5842604972589 370.1309995334235L872.5842604972589 479.8843829286753L854.3662001516203 479.8843829286753L854.3662001516203 463.66891852942746Q849.165013457522 472.06869597123335 839.847379540287 476.769233678734Q830.529745623052 481.4975852188234 819.3207710897813 481.4975852188234L819.3207710897813 481.4975852188234Q806.4985942663624 481.4975852188234 796.2909177062869 476.18514319437Q786.0832411462117 470.87270116991664 780.1588948048055 460.24781712100986Q774.262362295988 449.6507469046918 774.262362295988 434.4365804786394L774.262362295988 434.4365804786394L774.262362295988 370.1309995334235L792.2857258135053 370.1309995334235L792.2857258135053 432.0167770434172Q792.2857258135053 448.232241442665 800.4908064271899 456.96578487553603Q808.6958870408745 465.67151447581824 822.9365693263202 465.67151447581824L822.9365693263202 465.67151447581824Q837.5388314354199 465.67151447581824 845.9664227098145 456.6598327170596Q854.3662001516203 447.64815095830096 854.3662001516203 430.4313885858578L854.3662001516203 430.4313885858578L854.3662001516203 370.1309995334235ZM896.6154118539487 409.9882216331183Q896.6154118539487 389.5728685129676 905.8217904408285 373.2461487833648Q915.0559828602974 356.919429053762 930.9654951010688 347.713050466882Q946.8750073418402 338.50667188000205 966.3168763213843 338.50667188000205L966.3168763213843 338.50667188000205Q989.1520328767572 338.50667188000205 1006.1740984210791 349.52094958515147Q1023.1961639654008 360.5352272903009 1030.9840370902539 380.7558835823303L1030.9840370902539 380.7558835823303L1009.1779923406652 380.7558835823303Q1003.3649013296141 368.1284035870327 992.434065122231 361.34182843537496Q981.5310427474366 354.5274394511285 966.3168763213843 354.5274394511285L966.3168763213843 354.5274394511285Q951.6868003796959 354.5274394511285 940.0884321901824 361.34182843537496Q928.4622501680802 368.1284035870327 921.842558011955 380.64462825197523Q915.2506796884187 393.1608529169178 915.2506796884187 409.9882216331183L915.2506796884187 409.9882216331183Q915.2506796884187 426.6208935211975 921.842558011955 439.13711818614007Q928.4622501680802 451.65334285108264 940.0884321901824 458.4677318353291Q951.6868003796959 465.2543069869868 966.3168763213843 465.2543069869868L966.3168763213843 465.2543069869868Q981.5310427474366 465.2543069869868 992.434065122231 458.5511733330954Q1003.3649013296141 451.84803967920396 1009.1779923406652 439.22055968390634L1009.1779923406652 439.22055968390634L1030.9840370902539 439.22055968390634Q1023.1961639654008 459.2465191478144 1006.1740984210791 470.17735535519756Q989.1520328767572 481.080377729992 966.3168763213843 481.080377729992L966.3168763213843 481.080377729992Q946.8750073418402 481.080377729992 930.9654951010688 471.985254473467Q915.0559828602974 462.8623173843534 905.8217904408285 446.64685298510557Q896.6154118539487 430.4313885858578 896.6154118539487 409.9882216331183L896.6154118539487 409.9882216331183ZM1105.8866882517882 481.69228204694474Q1090.4778249976143 481.69228204694474 1077.9616003326719 474.6831962345769Q1065.4453756677294 467.6741104222091 1058.3250345250062 454.7406782684351Q1051.2325072148722 441.83505994724993 1051.2325072148722 424.81299440292804L1051.2325072148722 424.81299440292804Q1051.2325072148722 407.98562568672753 1058.5197313531276 395.0800073655423Q1065.8347693239718 382.1465752117684 1078.4622493192692 375.2487447297556Q1091.0619154819783 368.3509142477428 1106.693289396862 368.3509142477428L1106.693289396862 368.3509142477428Q1122.324663311746 368.3509142477428 1134.9243294744547 375.2487447297556Q1147.5518094697522 382.1465752117684 1154.8668474405963 394.96875203518726Q1162.154071578852 407.7909288586062 1162.154071578852 424.81299440292804L1162.154071578852 424.81299440292804Q1162.154071578852 441.83505994724993 1154.6443367798865 454.7406782684351Q1147.1346019809207 467.6741104222091 1134.3402389900907 474.6831962345769Q1121.5180621666718 481.69228204694474 1105.8866882517882 481.69228204694474L1105.8866882517882 481.69228204694474ZM1105.8866882517882 465.67151447581824Q1115.7049711556206 465.67151447581824 1124.3272592581366 461.0544182660839Q1132.9217335280637 456.4651358889383 1138.2341755525172 447.2309434694696Q1143.5466175769707 438.02456488258963 1143.5466175769707 424.81299440292804L1143.5466175769707 424.81299440292804Q1143.5466175769707 411.6014239232665 1138.3454308828723 402.39504533638654Q1133.1164303561852 393.1608529169178 1124.7166529143792 388.6550120375385Q1116.3168754725734 384.14917115815916 1106.4985925687406 384.14917115815916L1106.4985925687406 384.14917115815916Q1096.485612836787 384.14917115815916 1088.1692768927471 388.6550120375385Q1079.8529409487073 393.1608529169178 1074.8464510827307 402.39504533638654Q1069.8399612167536 411.6014239232665 1069.8399612167536 424.81299440292804L1069.8399612167536 424.81299440292804Q1069.8399612167536 438.21926171071095 1074.763009584964 447.4534541301797Q1079.658244120586 456.6598327170596 1087.863324734271 461.1656735964389Q1096.0684053479554 465.67151447581824 1105.8866882517882 465.67151447581824L1105.8866882517882 465.67151447581824ZM1179.398647783884 424.6182975748067Q1179.398647783884 407.7909288586062 1186.1852229355416 395.0800073655423Q1192.999611919788 382.3690858724784 1204.9317461003666 375.3600000601106Q1216.8360664483564 368.3509142477428 1231.660839218166 368.3509142477428L1231.660839218166 368.3509142477428Q1244.483016041585 368.3509142477428 1255.4972937467346 374.2474467565602Q1266.5115714518838 380.14397926537754 1272.2968486303462 389.7675653410889L1272.2968486303462 389.7675653410889L1272.2968486303462 331.6922828957555L1290.737419636695 331.6922828957555L1290.737419636695 479.8843829286753L1272.2968486303462 479.8843829286753L1272.2968486303462 459.2465191478144Q1266.9009651081265 469.0648020516471 1256.27608105922 475.37854204929596Q1245.6790108429018 481.69228204694474 1231.4661423900448 481.69228204694474L1231.4661423900448 481.69228204694474Q1216.8360664483564 481.69228204694474 1204.9317461003666 474.48849940645556Q1192.999611919788 467.25690293337766 1186.1852229355416 454.2400292818374Q1179.398647783884 441.2231556302972 1179.398647783884 424.6182975748067L1179.398647783884 424.6182975748067ZM1272.2968486303462 424.81299440292804Q1272.2968486303462 412.4080250683406 1267.2903587643696 403.17383264887184Q1262.2838688983925 393.9674540619919 1253.7728361262311 389.0722195263699Q1245.2618033540703 384.14917115815916 1235.054126793995 384.14917115815916L1235.054126793995 384.14917115815916Q1224.8464502339198 384.14917115815916 1216.446672792114 388.96096419601486Q1208.0190815177193 393.77275723387055 1203.0125916517422 402.9791358207505Q1198.0061017857652 412.1855144076305 1198.0061017857652 424.6182975748067L1198.0061017857652 424.6182975748067Q1198.0061017857652 437.2179637375155 1203.0125916517422 446.5355976547506Q1208.0190815177193 455.85323157198553 1216.446672792114 460.7484661076075Q1224.8464502339198 465.67151447581824 1235.054126793995 465.67151447581824L1235.054126793995 465.67151447581824Q1245.2618033540703 465.67151447581824 1253.7728361262311 460.7484661076075Q1262.2838688983925 455.85323157198553 1267.2903587643696 446.5355976547506Q1272.2968486303462 437.2179637375155 1272.2968486303462 424.81299440292804L1272.2968486303462 424.81299440292804ZM1421.7127572971717 420.8078025101465Q1421.7127572971717 426.00898920424476 1421.1008529802189 431.8220802152959L1421.1008529802189 431.8220802152959L1333.376024995266 431.8220802152959Q1334.3773229684612 448.03754461454366 1344.5015580307704 457.16048170365735Q1354.6257930930797 466.2556049601822 1369.033358374058 466.2556049601822L1369.033358374058 466.2556049601822Q1380.8542372242814 466.2556049601822 1388.7533656794894 460.7484661076075Q1396.6803079672864 455.2413272550328 1399.8788987149942 446.0349486681528L1399.8788987149942 446.0349486681528L1419.4876506900705 446.0349486681528Q1415.0930651410463 461.861019411158 1401.8814946613847 471.762743812757Q1388.6699241817232 481.69228204694474 1369.033358374058 481.69228204694474L1369.033358374058 481.69228204694474Q1353.401984459174 481.69228204694474 1341.1082704549417 474.6831962345769Q1328.7867426181201 467.6741104222091 1321.7776568057525 454.7406782684351Q1314.7685709933849 441.83505994724993 1314.7685709933849 424.81299440292804L1314.7685709933849 424.81299440292804Q1314.7685709933849 407.7909288586062 1321.5829599776312 394.96875203518726Q1328.369535129289 382.1465752117684 1340.6910629661102 375.2487447297556Q1353.0125908029313 368.3509142477428 1369.033358374058 368.3509142477428L1369.033358374058 368.3509142477428Q1384.6647322889417 368.3509142477428 1396.6803079672864 375.1374893994005Q1408.695883645631 381.95187838364706 1415.2043204714014 393.8840125642256Q1421.7127572971717 405.78833291221537 1421.7127572971717 420.8078025101465L1421.7127572971717 420.8078025101465ZM1402.8827926345803 416.9973074454862Q1402.8827926345803 406.59493405728944 1398.2656964248458 399.08519925832394Q1393.6764140477003 391.5754644593584 1385.7494717599034 387.6537140643431Q1377.8503433046953 383.7597775019165 1368.2267572289838 383.7597775019165L1368.2267572289838 383.7597775019165Q1354.4032824323695 383.7597775019165 1344.6962548588917 392.57676243255383Q1334.989227285414 401.3937473631911 1333.5985356559759 416.9973074454862L1333.5985356559759 416.9973074454862L1402.8827926345803 416.9973074454862ZM1484.572018947772 481.69228204694474Q1471.9723527850629 481.69228204694474 1461.9593730531092 477.38113799568674Q1451.946393321155 473.06999394442875 1446.1333023101038 465.3655623173419Q1440.3202112990525 457.66113069025505 1439.736120814689 447.64815095830096L1439.736120814689 447.64815095830096L1458.5382716446911 447.64815095830096Q1459.3448727897653 455.85323157198553 1466.2705171043672 461.0544182660839Q1473.1683475863797 466.2556049601822 1484.3773221196507 466.2556049601822L1484.3773221196507 466.2556049601822Q1494.807509340436 466.2556049601822 1500.8152971796085 461.6663225830367Q1506.823085018781 457.0492263733023 1506.823085018781 450.04014056093445L1506.823085018781 450.04014056093445Q1506.823085018781 442.8363579204453 1500.398089690777 439.3318150142614Q1494.0009081953622 435.82727210807747 1480.5668270549904 432.43398453224864L1480.5668270549904 432.43398453224864Q1468.3565545485244 429.2075799519523 1460.6521229214372 425.9255477064785Q1452.9476912943505 422.61570162841593 1447.4405524417757 416.1072648026458Q1441.9334135892009 409.59882797687567 1441.9334135892009 398.9739439279689L1441.9334135892009 398.9739439279689Q1441.9334135892009 390.574166486163 1446.939903455178 383.5650806737952Q1451.946393321155 376.55599486142734 1461.152771908035 372.43954763829066Q1470.359150494915 368.3509142477428 1482.1800293451383 368.3509142477428L1482.1800293451383 368.3509142477428Q1500.398089690777 368.3509142477428 1511.6070642240475 377.5572928346228Q1522.8438525899073 386.76367142150275 1523.6226399023926 402.7844389926292L1523.6226399023926 402.7844389926292L1505.404579556754 402.7844389926292Q1504.82048907239 394.1621508901132 1498.5067490747415 388.96096419601486Q1492.1930090770925 383.7597775019165 1481.5681250281855 383.7597775019165L1481.5681250281855 383.7597775019165Q1471.7776559569415 383.7597775019165 1465.9645649458907 387.95966622281946Q1460.1514739348395 392.1595549437224 1460.1514739348395 398.9739439279689L1460.1514739348395 398.9739439279689Q1460.1514739348395 404.39764128277733 1463.6560168410233 407.90218418896126Q1467.1605597472071 411.40672709514513 1472.4730017716606 413.49276453930224Q1477.7854437961141 415.6066158160481 1487.1865192111154 418.1933022468029L1487.1865192111154 418.1933022468029Q1499.0073980613388 421.4197068270992 1506.4058775299495 424.5070422444517Q1513.8321708311487 427.62219149439295 1519.1167990230133 433.8246761616867Q1524.4292410474668 440.0271608289804 1524.6239378755881 450.04014056093445L1524.6239378755881 450.04014056093445Q1524.6239378755881 459.0518223196931 1519.617448009611 466.2556049601822Q1514.610958143634 473.48720143326017 1505.5158348871091 477.57583482380807Q1496.3928977979954 481.69228204694474 1484.572018947772 481.69228204694474L1484.572018947772 481.69228204694474Z " fill="black" transform="matrix(0.5739120005335587,0,0,0.5739120005335588,0,66.59440016237932)"/></g></svg>